<svg width="30" height="30" viewBox="0 0 30 30" fill="none" xmlns="http://www.w3.org/2000/svg">
<path d="M5.82509 5.82509C0.488316 11.1619 0.488316 19.8148 5.82509 25.1515C11.1619 30.4883 19.8148 30.4883 25.1515 25.1515C30.4883 19.8148 30.4883 11.1619 25.1515 5.82509C19.8129 0.488316 11.1619 0.488316 5.82509 5.82509ZM21.8646 10.0213V17.7522C21.8646 17.9938 21.7686 18.2256 21.5977 18.3964C21.4269 18.5673 21.1952 18.6632 20.9535 18.6632C20.7119 18.6632 20.4802 18.5673 20.3094 18.3964C20.1385 18.2256 20.0425 17.9938 20.0425 17.7522V12.2205L10.003 22.26C9.83122 22.4259 9.6011 22.5177 9.36223 22.5157C9.12336 22.5136 8.89487 22.4178 8.72595 22.2489C8.55704 22.0799 8.46123 21.8514 8.45916 21.6126C8.45708 21.3737 8.54891 21.1436 8.71486 20.9718L18.7543 10.9323H13.2226C12.981 10.9323 12.7493 10.8363 12.5784 10.6655C12.4076 10.4946 12.3116 10.2629 12.3116 10.0213C12.3116 9.77965 12.4076 9.54792 12.5784 9.37707C12.7493 9.20622 12.981 9.11024 13.2226 9.11024H20.9535C21.1952 9.11024 21.4269 9.20622 21.5977 9.37707C21.7686 9.54792 21.8646 9.77965 21.8646 10.0213Z" fill="white"/>
</svg>
