<svg width="22" height="26" viewBox="0 0 22 26" fill="none" xmlns="http://www.w3.org/2000/svg">
<path d="M20.1975 17.114L20.1973 17.1138C19.528 16.5492 18.9902 15.8451 18.6215 15.0508C18.2528 14.2566 18.0621 13.3913 18.0627 12.5157V12.5153V9.80566V9.80469C18.0593 8.05051 17.4251 6.35606 16.2759 5.0307C15.222 3.81512 13.7993 2.98439 12.2315 2.66073V2.03229V2.02509L12.2313 2.0179C12.2202 1.63493 12.0604 1.27134 11.7856 1.00435C11.5108 0.737365 11.1427 0.588013 10.7596 0.588013C10.3765 0.588013 10.0084 0.737365 9.73365 1.00435L10.0794 1.36018L9.73364 1.00435C9.45886 1.27134 9.29897 1.63493 9.28794 2.0179L9.28773 2.02509V2.03229V2.66069C7.71985 2.98422 6.29707 3.81492 5.24306 5.03053C4.09386 6.35594 3.45973 8.05049 3.4565 9.80474V9.80566V12.5153V12.5155C3.45689 13.3932 3.26527 14.2604 2.89508 15.0562C2.52488 15.852 1.98508 16.5572 1.31352 17.1223L1.31351 17.1223L1.31026 17.1251C0.968664 17.4175 0.724894 17.8077 0.61177 18.2429C0.498646 18.6781 0.521601 19.1376 0.677543 19.5594C0.833486 19.9812 1.11493 20.3451 1.48397 20.602C1.85299 20.859 2.29188 20.9967 2.74156 20.9967C2.74158 20.9967 2.74161 20.9967 2.74164 20.9967H18.7768H18.777C19.228 20.9966 19.6682 20.8579 20.0378 20.5994C20.4075 20.3409 20.6888 19.9751 20.8437 19.5515C20.9986 19.1279 21.0196 18.6669 20.9039 18.2309C20.7884 17.7956 20.5426 17.4055 20.1975 17.114Z" stroke="white"/>
<path d="M14.8196 21.983L14.9429 21.3824H14.3298H7.18848H6.57534L6.6987 21.983C6.8908 22.9183 7.39948 23.7587 8.13899 24.3627C8.87851 24.9666 9.80363 25.2971 10.7584 25.2985L10.7598 25.2985C11.7146 25.2971 12.6398 24.9666 13.3793 24.3627C14.1188 23.7587 14.6275 22.9183 14.8196 21.983Z" stroke="white"/>
</svg>
