<svg xmlns="http://www.w3.org/2000/svg" version="1.1" xmlns:xlink="http://www.w3.org/1999/xlink" xmlns:svgjs="http://svgjs.com/svgjs" width="512" height="512" x="0" y="0" viewBox="0 0 32 32" style="enable-background:new 0 0 512 512" xml:space="preserve" class=""><g><path d="M7 27c0 1.654 1.346 3 3 3s3-1.346 3-3-1.346-3-3-3-3 1.346-3 3zm4 0c0 .551-.449 1-1 1s-1-.449-1-1 .449-1 1-1 1 .449 1 1zM25 27c0-1.654-1.346-3-3-3s-3 1.346-3 3 1.346 3 3 3 3-1.346 3-3zm-4 0c0-.551.449-1 1-1s1 .449 1 1-.449 1-1 1-1-.449-1-1zM4.1 3l1.717 16.314A2.994 2.994 0 0 0 8.801 22h15.583a3.017 3.017 0 0 0 2.934-2.372L29.72 8.419a1.989 1.989 0 0 0-.401-1.676A1.993 1.993 0 0 0 27.763 6H6.427l-.432-4.104A1 1 0 0 0 5 1H2a1 1 0 0 0 0 2zm23.663 5-2.401 11.209c-.099.458-.51.791-.979.791H8.801a.998.998 0 0 1-.995-.895L6.637 8z" fill="#FFFFFF" data-original="#000000" opacity="1" class=""></path></g></svg>