<svg width="23" height="23" viewBox="0 0 23 23" fill="none" xmlns="http://www.w3.org/2000/svg">
<path d="M19.5308 16.5597C20.4746 15.0222 20.973 13.2529 20.9705 11.4489C20.973 9.64476 20.4746 7.87516 19.5308 6.3376L19.5256 6.32902C18.65 4.90193 17.4231 3.72322 15.9621 2.90551C14.5011 2.08781 12.8548 1.65845 11.1805 1.65845C9.50625 1.65845 7.85995 2.08781 6.39894 2.90551C4.93793 3.72322 3.71103 4.90193 2.83548 6.32902L2.8302 6.3376C1.8888 7.87619 1.39062 9.6449 1.39062 11.4486C1.39062 13.2524 1.8888 15.0211 2.8302 16.5597L2.8357 16.5685C3.71128 17.9955 4.93819 19.1742 6.39919 19.9918C7.86019 20.8095 9.50645 21.2388 11.1807 21.2388C12.8549 21.2387 14.5012 20.8094 15.9622 19.9917C17.4231 19.174 18.65 17.9953 19.5256 16.5683L19.5308 16.5597ZM12.4319 19.5607C12.2453 19.7407 12.0305 19.8891 11.7961 19.9998C11.6037 20.0912 11.3934 20.1386 11.1804 20.1386C10.9674 20.1386 10.7571 20.0912 10.5647 19.9998C10.1187 19.772 9.73688 19.436 9.45418 19.0226C8.87686 18.1883 8.44904 17.2599 8.18984 16.279C9.18571 16.2177 10.1826 16.1864 11.1805 16.1852C12.178 16.1852 13.175 16.2165 14.1714 16.279C14.0279 16.7833 13.8487 17.2767 13.6351 17.7556C13.3538 18.4291 12.9452 19.0419 12.4319 19.5607ZM2.50966 11.9986H6.45844C6.48417 13.1005 6.60362 14.1981 6.8155 15.2797C5.73603 15.3748 4.65935 15.5053 3.58546 15.6713C2.95653 14.543 2.5889 13.2879 2.50966 11.9986ZM3.58546 7.22618C4.65891 7.3925 5.73596 7.52304 6.8166 7.61778C6.60435 8.69925 6.48468 9.79684 6.45888 10.8986H2.50966C2.58893 9.60941 2.95656 8.35441 3.58546 7.22618ZM9.92916 3.33658C10.1157 3.15653 10.3305 3.0082 10.565 2.89746C10.7573 2.80606 10.9676 2.75864 11.1806 2.75864C11.3936 2.75864 11.6039 2.80606 11.7963 2.89746C12.2423 3.12528 12.6242 3.46126 12.9069 3.8747C13.4842 4.70903 13.912 5.6374 14.1712 6.61832C13.1753 6.67963 12.1784 6.71087 11.1805 6.71204C10.183 6.71204 9.18607 6.6808 8.18962 6.61832C8.33312 6.114 8.51236 5.62054 8.72598 5.14168C9.00727 4.46823 9.41579 3.85534 9.92916 3.33658ZM19.8514 10.8986H15.9026C15.8769 9.7968 15.7574 8.69915 15.5455 7.61756C16.625 7.52252 17.7017 7.39199 18.7756 7.22596C19.4045 8.35425 19.7721 9.60933 19.8514 10.8986ZM7.92188 15.1941C7.70679 14.1418 7.58531 13.0724 7.55888 11.9986H14.8024C14.7762 13.0725 14.6549 14.1419 14.44 15.1944C13.3547 15.1231 12.2682 15.0867 11.1805 15.0852C10.0937 15.0852 9.00751 15.1215 7.92188 15.1941ZM14.4392 7.70314C14.6542 8.7555 14.7757 9.82485 14.8022 10.8986H7.55888C7.58506 9.82479 7.70632 8.75537 7.92122 7.70292C9.00655 7.7742 10.0931 7.81057 11.1807 7.81204C12.2675 7.81204 13.3538 7.77567 14.4394 7.70292L14.4392 7.70314ZM15.9022 11.9986H19.8514C19.7721 13.2879 19.4045 14.5429 18.7756 15.6711C17.702 15.5048 16.6249 15.3742 15.5444 15.2795C15.7567 14.198 15.8764 13.1004 15.9022 11.9986ZM18.116 6.21374C17.1774 6.34911 16.236 6.45633 15.2919 6.53538C15.1222 5.90355 14.9034 5.28596 14.6374 4.68826C14.3945 4.13827 14.0889 3.61819 13.7266 3.13836C15.4773 3.67531 17.0135 4.75166 18.116 6.21374ZM5.03592 5.30382C6.04021 4.29858 7.27575 3.55503 8.63424 3.13836C8.61356 3.1652 8.59244 3.19072 8.5722 3.21778C7.87392 4.22294 7.36528 5.34729 7.07136 6.53538C6.12712 6.45545 5.18508 6.34823 4.24524 6.21374C4.4876 5.89264 4.75178 5.58862 5.03592 5.30382ZM4.24524 16.6835C5.18376 16.5482 6.12514 16.441 7.06938 16.3619C7.23905 16.9937 7.45788 17.6113 7.72388 18.209C7.96678 18.759 8.27241 19.2791 8.63468 19.7589C6.884 19.222 5.34774 18.1456 4.24524 16.6835ZM17.3256 17.5935C16.3213 18.5987 15.0857 19.3423 13.7272 19.7589C13.7479 19.7321 13.769 19.7066 13.7893 19.6795C14.4876 18.6743 14.9962 17.55 15.2901 16.3619C16.2344 16.4418 17.1764 16.549 18.1162 16.6835C17.8739 17.0046 17.6097 17.3087 17.3256 17.5935Z" fill="white"/>
</svg>
