<svg width="21" height="21" viewBox="0 0 21 21" fill="none" xmlns="http://www.w3.org/2000/svg">
<g clip-path="url(#clip0_674_2443)">
<path fill-rule="evenodd" clip-rule="evenodd" d="M2.46714 19.7493C2.31113 19.7493 2.16151 19.6873 2.0512 19.577C1.94088 19.4667 1.87891 19.3171 1.87891 19.1611V7.39637C1.87891 7.08435 2.00286 6.78511 2.22349 6.56448C2.44412 6.34385 2.74336 6.2199 3.05538 6.2199H4.82008V10.0434C4.82008 10.1214 4.85107 10.1962 4.90623 10.2514C4.96139 10.3066 5.0362 10.3375 5.1142 10.3375H5.70244C5.78044 10.3375 5.85525 10.3066 5.91041 10.2514C5.96557 10.1962 5.99655 10.1214 5.99655 10.0434V6.2199H10.7024V10.0434C10.7024 10.1214 10.7334 10.1962 10.7886 10.2514C10.8437 10.3066 10.9185 10.3375 10.9966 10.3375H11.5848C11.6628 10.3375 11.7376 10.3066 11.7928 10.2514C11.8479 10.1962 11.8789 10.1214 11.8789 10.0434V6.2199H13.6436C13.9556 6.2199 14.2549 6.34385 14.4755 6.56448C14.6961 6.78511 14.8201 7.08435 14.8201 7.39637V13.2511C14.7928 13.2172 14.7638 13.1848 14.733 13.154L14.3213 12.742C14.1004 12.5208 13.8007 12.3965 13.4881 12.3963C13.1756 12.3961 12.8757 12.52 12.6545 12.7408L10.8045 14.5908C10.5287 14.8666 10.3738 15.2406 10.3738 15.6306C10.3738 16.0207 10.5287 16.3947 10.8045 16.6705L12.6545 18.5205C12.7638 18.6302 12.8937 18.7172 13.0367 18.7765C13.1798 18.8357 13.3332 18.8661 13.488 18.8658H12.1386C11.8775 18.8656 11.6239 18.9524 11.4176 19.1124C11.2112 19.2723 11.0641 19.4964 10.9992 19.7493H2.46714ZM5.99655 6.2199H4.82008V4.45225C4.82008 2.50431 6.40008 0.925781 8.34949 0.925781C10.2992 0.925781 11.8789 2.50343 11.8789 4.45225V6.2199H10.7024V4.45225C10.7024 3.15372 9.64949 2.10225 8.34949 2.10225C7.04949 2.10225 5.99655 3.15431 5.99655 4.45225V6.2199ZM13.2642 15.0425H15.9598C17.5836 15.0425 18.9018 16.3611 18.9018 17.9837C18.9018 19.6081 17.5845 20.9249 15.9598 20.9249H12.1386C11.9751 20.9249 11.8445 20.792 11.8445 20.6278V20.0455C11.8441 20.0066 11.8514 19.9681 11.866 19.932C11.8806 19.896 11.9022 19.8632 11.9296 19.8356C11.9569 19.808 11.9895 19.7861 12.0254 19.7711C12.0613 19.7561 12.0997 19.7484 12.1386 19.7484H15.9598C16.1916 19.7485 16.4212 19.7029 16.6353 19.6143C16.8495 19.5256 17.0442 19.3957 17.2081 19.2318C17.3721 19.0679 17.5021 18.8733 17.5909 18.6592C17.6796 18.4451 17.7253 18.2155 17.7254 17.9837C17.7254 17.0108 16.9339 16.219 15.9598 16.219H13.2642L14.1107 17.0655C14.1658 17.1211 14.1967 17.1964 14.1963 17.2748C14.196 17.3532 14.1645 17.4282 14.1089 17.4834L13.6968 17.8955C13.5792 18.0131 13.3933 18.012 13.278 17.8967L11.428 16.0467C11.3177 15.9364 11.2558 15.7868 11.2558 15.6308C11.2558 15.4748 11.3177 15.3252 11.428 15.2149L13.278 13.3649C13.393 13.2499 13.581 13.2502 13.6968 13.3658L14.1086 13.7778C14.1364 13.805 14.1584 13.8375 14.1736 13.8733C14.1887 13.9091 14.1966 13.9475 14.1968 13.9864C14.197 14.0252 14.1895 14.0638 14.1747 14.0997C14.1599 14.1356 14.1381 14.1683 14.1107 14.1958L13.2642 15.0425Z" fill="#7C7C7C"/>
</g>
<defs>
<clipPath id="clip0_674_2443">
<rect width="20" height="20" fill="white" transform="translate(0.408203 0.925781)"/>
</clipPath>
</defs>
</svg>
