<svg width="25" height="25" viewBox="0 0 25 25" fill="none" xmlns="http://www.w3.org/2000/svg">
<g clip-path="url(#clip0_155_2460)">
<path d="M3.70703 2.67993C3.15475 2.67993 2.70703 3.12765 2.70703 3.67993C2.70703 4.23222 3.15475 4.67993 3.70703 4.67993V2.67993ZM5.70703 3.67993L6.70409 3.60324C6.66401 3.08224 6.22957 2.67993 5.70703 2.67993V3.67993ZM21.707 6.67993L22.7009 6.79036C22.7323 6.50766 22.6419 6.22496 22.4522 6.01301C22.2625 5.80106 21.9915 5.67993 21.707 5.67993V6.67993ZM5.9378 6.67993L4.94075 6.75663L5.9378 6.67993ZM19.0457 15.7986L19.1169 16.7961L19.0457 15.7986ZM8.69108 16.5382L8.61983 15.5408L8.69108 16.5382ZM3.70703 4.67993H5.70703V2.67993H3.70703V4.67993ZM8.76232 17.5357L19.1169 16.7961L18.9744 14.8011L8.61983 15.5408L8.76232 17.5357ZM21.8848 14.135L22.7009 6.79036L20.7131 6.5695L19.8971 13.9141L21.8848 14.135ZM4.70998 3.75663L4.94075 6.75663L6.93485 6.60324L6.70409 3.60324L4.70998 3.75663ZM4.94075 6.75663L5.55742 14.7734L7.55153 14.62L6.93485 6.60324L4.94075 6.75663ZM21.707 5.67993H5.9378V7.67993H21.707V5.67993ZM19.1169 16.7961C20.5607 16.6929 21.725 15.5736 21.8848 14.135L19.8971 13.9141C19.8438 14.3937 19.4557 14.7668 18.9744 14.8011L19.1169 16.7961ZM8.61983 15.5408C8.07108 15.58 7.59372 15.1685 7.55153 14.62L5.55742 14.7734C5.684 16.419 7.11606 17.6533 8.76232 17.5357L8.61983 15.5408Z" fill="#F8A11D"/>
<rect x="9.20703" y="21.1799" width="0.01" height="0.01" stroke="#E45526" stroke-width="3" stroke-linejoin="round"/>
<rect x="18.207" y="21.1799" width="0.01" height="0.01" stroke="#E45526" stroke-width="3" stroke-linejoin="round"/>
</g>
<defs>
<clipPath id="clip0_155_2460">
<rect width="24" height="24" fill="white" transform="translate(0.707031 0.679932)"/>
</clipPath>
</defs>
</svg>
