<svg width="26" height="22" viewBox="0 0 26 22" fill="none" xmlns="http://www.w3.org/2000/svg">
<g clip-path="url(#clip0_128_1110)">
<path d="M17.1582 18.9007C17.2549 18.916 17.3538 18.9133 17.4494 18.8927C17.5449 18.8721 17.6352 18.834 17.715 18.7805C17.7948 18.7271 17.8626 18.6594 17.9144 18.5813C17.9662 18.5032 18.0011 18.4163 18.017 18.3256L18.7613 14.1254C18.7939 13.9422 18.7475 13.7544 18.6325 13.6032C18.5174 13.4521 18.343 13.35 18.1477 13.3195C17.9524 13.2889 17.7521 13.3324 17.591 13.4403C17.4298 13.5483 17.321 13.7118 17.2885 13.895L16.5441 18.0952C16.5278 18.1859 16.5307 18.2788 16.5527 18.3685C16.5748 18.4582 16.6155 18.5428 16.6726 18.6177C16.7296 18.6926 16.8019 18.7561 16.8853 18.8047C16.9686 18.8532 17.0614 18.8858 17.1582 18.9007Z" fill="white"/>
<path d="M8.28578 18.3282C8.3019 18.4188 8.3369 18.5056 8.38879 18.5836C8.44068 18.6615 8.50843 18.7291 8.58818 18.7825C8.66792 18.836 8.7581 18.8741 8.85356 18.8948C8.94903 18.9155 9.0479 18.9184 9.14455 18.9033C9.2412 18.8881 9.33373 18.8553 9.41685 18.8067C9.49997 18.758 9.57205 18.6944 9.62899 18.6196C9.68592 18.5448 9.7266 18.4603 9.74868 18.3707C9.77077 18.2812 9.77384 18.1884 9.75771 18.0978L9.01337 13.8976C8.9808 13.7146 8.87202 13.5511 8.71097 13.4433C8.54991 13.3354 8.34977 13.292 8.15458 13.3225C7.95939 13.3531 7.78513 13.4551 7.67014 13.6062C7.55515 13.7572 7.50886 13.9449 7.54143 14.128L8.28578 18.3282Z" fill="white"/>
<path d="M25.1181 7.71276H22.4915L16.7442 0.973982C16.6208 0.82898 16.4411 0.73589 16.2445 0.715187C16.048 0.694484 15.8507 0.747866 15.6961 0.86359C15.5415 0.979313 15.4422 1.1479 15.4202 1.33226C15.3981 1.51662 15.455 1.70165 15.5784 1.84666L20.5794 7.71276H5.67399L10.6741 1.84666C10.7352 1.77486 10.7806 1.69248 10.8078 1.60422C10.8349 1.51596 10.8433 1.42355 10.8323 1.33226C10.8214 1.24097 10.7914 1.1526 10.7441 1.07219C10.6967 0.991771 10.633 0.92089 10.5564 0.86359C10.4799 0.806289 10.392 0.763692 10.2979 0.738229C10.2038 0.712766 10.1053 0.704936 10.008 0.715187C9.91064 0.725438 9.81642 0.753568 9.73068 0.797972C9.64495 0.842376 9.56937 0.902185 9.50828 0.973982L3.76196 7.71102H1.1335C0.93609 7.71102 0.746764 7.78457 0.607173 7.9155C0.467582 8.04642 0.38916 8.224 0.38916 8.40916L0.38916 11.2096C0.38916 11.3947 0.467582 11.5723 0.607173 11.7032C0.746764 11.8341 0.93609 11.9077 1.1335 11.9077H2.06393L4.89615 21.2052C4.94036 21.3516 5.03438 21.4804 5.16387 21.5721C5.29337 21.6638 5.45126 21.7133 5.61351 21.7131H20.6399C20.8022 21.7133 20.9601 21.6638 21.0896 21.5721C21.2191 21.4804 21.3131 21.3516 21.3573 21.2052L24.1876 11.9129H25.1181C25.3155 11.9129 25.5048 11.8394 25.6444 11.7085C25.784 11.5775 25.8624 11.4 25.8624 11.2148V8.41265C25.8624 8.22749 25.784 8.04992 25.6444 7.91899C25.5048 7.78806 25.3155 7.71451 25.1181 7.71451V7.71276ZM20.077 20.3124H6.17642L3.61774 11.9129H22.6357L20.077 20.3124ZM24.3719 10.5123H1.87784V9.11602H24.3719V10.5123Z" fill="white"/>
<path d="M13.1247 18.9128C13.3221 18.9128 13.5115 18.8392 13.6511 18.7083C13.7906 18.5774 13.8691 18.3998 13.8691 18.2147V14.011C13.8691 13.9193 13.8498 13.8286 13.8124 13.7438C13.775 13.6591 13.7202 13.5822 13.6511 13.5173C13.5819 13.4525 13.4999 13.4011 13.4096 13.366C13.3193 13.3309 13.2225 13.3129 13.1247 13.3129C13.027 13.3129 12.9302 13.3309 12.8399 13.366C12.7496 13.4011 12.6675 13.4525 12.5984 13.5173C12.5293 13.5822 12.4744 13.6591 12.437 13.7438C12.3996 13.8286 12.3804 13.9193 12.3804 14.011V18.2112C12.3799 18.3032 12.3988 18.3943 12.436 18.4794C12.4731 18.5645 12.5279 18.6419 12.5971 18.7071C12.6662 18.7723 12.7485 18.824 12.839 18.8593C12.9296 18.8946 13.0267 18.9128 13.1247 18.9128Z" fill="white"/>
</g>
<defs>
<clipPath id="clip0_128_1110">
<rect width="25.4751" height="21" fill="white" transform="translate(0.38916 0.712402)"/>
</clipPath>
</defs>
</svg>
