<svg width="20" height="23" viewBox="0 0 20 23" fill="none" xmlns="http://www.w3.org/2000/svg">
<path d="M4.91577 6.24902C4.91577 3.32661 7.29414 0.948242 10.2166 0.948242C13.139 0.948242 15.5173 3.32661 15.5173 6.24902C15.5173 9.17143 13.139 11.5498 10.2166 11.5498C7.29414 11.5498 4.91577 9.17143 4.91577 6.24902ZM3.3555 16.1903L2.99926 15.8394L3.3555 16.1903C4.851 14.6718 6.82861 13.8389 8.92749 13.8389H11.5056C13.6045 13.8389 15.5821 14.6718 17.0776 16.1903C18.5663 17.7019 19.3845 19.6942 19.3845 21.8037C19.3845 21.8835 19.3198 21.9482 19.24 21.9482H1.19312C1.1133 21.9482 1.04858 21.8835 1.04858 21.8037C1.04858 19.6942 1.86678 17.7019 3.3555 16.1903Z" stroke="white"/>
</svg>
