<svg width="25" height="25" viewBox="0 0 25 25" fill="none" xmlns="http://www.w3.org/2000/svg">
<g clip-path="url(#clip0_132_6465)">
<path d="M21.7075 12.71C21.7075 14.5669 21.1451 16.2925 20.1814 17.7257C18.5655 20.1288 15.8212 21.71 12.7075 21.71C9.59388 21.71 6.84954 20.1288 5.23361 17.7257C4.26989 16.2925 3.70752 14.5669 3.70752 12.71C3.70752 7.7394 7.73696 3.70996 12.7075 3.70996C17.6781 3.70996 21.7075 7.7394 21.7075 12.71Z" stroke="#F8A11D" stroke-width="2"/>
<path d="M14.7075 9.70996C14.7075 10.8145 13.8121 11.71 12.7075 11.71C11.603 11.71 10.7075 10.8145 10.7075 9.70996C10.7075 8.60539 11.603 7.70996 12.7075 7.70996C13.8121 7.70996 14.7075 8.60539 14.7075 9.70996Z" stroke="#E45526" stroke-width="2"/>
<path d="M15.7077 15.71H9.70768C7.89593 15.71 6.36551 16.9145 5.87354 18.5664C7.52415 20.4908 9.97354 21.71 12.7077 21.71C15.4418 21.71 17.8912 20.4908 19.5418 18.5664C19.0499 16.9145 17.5194 15.71 15.7077 15.71Z" stroke="#F8A11D" stroke-width="2"/>
</g>
<defs>
<clipPath id="clip0_132_6465">
<rect width="24" height="24" fill="white" transform="translate(0.70752 0.709961)"/>
</clipPath>
</defs>
</svg>
